<svg width="35" height="34" viewBox="0 0 35 34" fill="none" xmlns="http://www.w3.org/2000/svg">
<g clip-path="url(#clip0_187_2790)">
<path d="M17.5 0C12.8866 0 12.3065 0.02125 10.4939 0.102C8.68125 0.187 7.44662 0.47175 6.365 0.8925C5.22992 1.31819 4.20205 1.98772 3.35388 2.85388C2.48772 3.70205 1.81819 4.72992 1.3925 5.865C0.97175 6.9445 0.684875 8.18125 0.602 9.9875C0.52125 11.8044 0.5 12.3824 0.5 17.0021C0.5 21.6176 0.52125 22.1956 0.602 24.0083C0.687 25.8188 0.97175 27.0534 1.3925 28.135C1.82812 29.2528 2.40825 30.2005 3.35388 31.1461C4.29738 32.0917 5.24513 32.674 6.36287 33.1075C7.44663 33.5283 8.67913 33.8151 10.4896 33.898C12.3044 33.9787 12.8824 34 17.5 34C22.1176 34 22.6935 33.9787 24.5083 33.898C26.3166 33.813 27.5555 33.5283 28.6371 33.1075C29.7714 32.6815 30.7986 32.012 31.6461 31.1461C32.5917 30.2005 33.1719 29.2528 33.6075 28.135C34.0261 27.0534 34.313 25.8188 34.398 24.0083C34.4787 22.1956 34.5 21.6176 34.5 17C34.5 12.3824 34.4787 11.8044 34.398 9.98963C34.313 8.18125 34.0261 6.9445 33.6075 5.865C33.1818 4.72992 32.5123 3.70205 31.6461 2.85388C30.7979 1.98772 29.7701 1.31819 28.635 0.8925C27.5513 0.47175 26.3145 0.184875 24.5061 0.102C22.6914 0.02125 22.1155 0 17.4958 0H17.5ZM15.9764 3.06425H17.5021C22.0411 3.06425 22.5787 3.07913 24.3701 3.162C26.0276 3.23638 26.9286 3.51475 27.5279 3.74638C28.3205 4.0545 28.8879 4.42425 29.4829 5.01925C30.0779 5.61425 30.4455 6.1795 30.7536 6.97425C30.9874 7.57137 31.2636 8.47238 31.338 10.1299C31.4209 11.9213 31.4379 12.4589 31.4379 16.9958C31.4379 21.5326 31.4209 22.0724 31.338 23.8637C31.2636 25.5212 30.9853 26.4201 30.7536 27.0194C30.4791 27.7565 30.0444 28.4236 29.4807 28.9722C28.8857 29.5672 28.3205 29.9349 27.5258 30.243C26.9308 30.4768 26.0297 30.753 24.3701 30.8295C22.5787 30.9103 22.0411 30.9294 17.5021 30.9294C12.9631 30.9294 12.4234 30.9103 10.632 30.8295C8.9745 30.753 8.07562 30.4768 7.47638 30.243C6.73865 29.9694 6.0709 29.5354 5.52137 28.9722C4.95671 28.4232 4.5212 27.7554 4.24638 27.0173C4.01475 26.4201 3.73638 25.5191 3.662 23.8616C3.58125 22.0702 3.56425 21.5326 3.56425 16.9915C3.56425 12.4504 3.58125 11.917 3.662 10.1256C3.7385 8.46812 4.01475 7.56713 4.2485 6.96788C4.55662 6.17525 4.92637 5.60787 5.52137 5.01288C6.11637 4.41787 6.68162 4.05025 7.47638 3.74213C8.07562 3.50838 8.9745 3.23213 10.632 3.15563C12.2003 3.08337 12.808 3.06213 15.9764 3.06V3.06425ZM26.5759 5.88625C26.308 5.88625 26.0427 5.93902 25.7952 6.04154C25.5477 6.14406 25.3228 6.29432 25.1334 6.48375C24.9439 6.67318 24.7937 6.89807 24.6912 7.14558C24.5886 7.39308 24.5359 7.65835 24.5359 7.92625C24.5359 8.19415 24.5886 8.45942 24.6912 8.70692C24.7937 8.95443 24.9439 9.17932 25.1334 9.36875C25.3228 9.55818 25.5477 9.70844 25.7952 9.81096C26.0427 9.91348 26.308 9.96625 26.5759 9.96625C27.1169 9.96625 27.6358 9.75132 28.0184 9.36875C28.4009 8.98617 28.6159 8.46729 28.6159 7.92625C28.6159 7.38521 28.4009 6.86633 28.0184 6.48375C27.6358 6.10118 27.1169 5.88625 26.5759 5.88625ZM17.5021 8.2705C16.3442 8.25243 15.1941 8.46491 14.1191 8.89555C13.044 9.32619 12.0653 9.9664 11.2401 10.7789C10.4148 11.5914 9.7594 12.56 9.31204 13.6282C8.86468 14.6964 8.63429 15.8429 8.63429 17.0011C8.63429 18.1592 8.86468 19.3057 9.31204 20.3739C9.7594 21.4422 10.4148 22.4107 11.2401 23.2232C12.0653 24.0357 13.044 24.6759 14.1191 25.1066C15.1941 25.5372 16.3442 25.7497 17.5021 25.7316C19.794 25.6959 21.98 24.7603 23.5881 23.1269C25.1962 21.4935 26.0975 19.2932 26.0975 17.0011C26.0975 14.7089 25.1962 12.5086 23.5881 10.8752C21.98 9.24181 19.794 8.30626 17.5021 8.2705ZM17.5021 11.3326C18.2464 11.3326 18.9833 11.4792 19.6709 11.764C20.3585 12.0488 20.9833 12.4663 21.5096 12.9926C22.0358 13.5188 22.4533 14.1436 22.7381 14.8312C23.0229 15.5188 23.1695 16.2558 23.1695 17C23.1695 17.7442 23.0229 18.4812 22.7381 19.1688C22.4533 19.8564 22.0358 20.4812 21.5096 21.0074C20.9833 21.5337 20.3585 21.9512 19.6709 22.236C18.9833 22.5208 18.2464 22.6674 17.5021 22.6674C15.999 22.6674 14.5575 22.0703 13.4947 21.0074C12.4318 19.9446 11.8348 18.5031 11.8348 17C11.8348 15.4969 12.4318 14.0554 13.4947 12.9926C14.5575 11.9297 15.999 11.3326 17.5021 11.3326Z" fill="#C12727"/>
</g>
<defs>
<clipPath id="clip0_187_2790">
<rect width="34" height="34" fill="white" transform="translate(0.5)"/>
</clipPath>
</defs>
</svg>
