<svg width="35" height="34" viewBox="0 0 35 34" fill="none" xmlns="http://www.w3.org/2000/svg">
<path d="M19.9286 0H24.7371C25.0869 1.51937 26.0486 3.43612 27.7364 5.338C29.3879 7.20162 31.5784 8.5 34.5 8.5V12.75C30.2427 12.75 27.0443 11.0202 24.7857 8.86337V23.375C24.7857 25.4764 24.0735 27.5307 22.7393 29.2779C21.405 31.0252 19.5085 32.387 17.2897 33.1912C15.0709 33.9954 12.6294 34.2058 10.2739 33.7958C7.91842 33.3859 5.75477 32.3739 4.05657 30.888C2.35836 29.4021 1.20186 27.5089 0.733327 25.4478C0.264792 23.3868 0.505261 21.2505 1.42433 19.309C2.34339 17.3675 3.89977 15.7081 5.89665 14.5406C7.89353 13.3731 10.2412 12.75 12.6429 12.75V17C11.2019 17 9.79326 17.3739 8.59513 18.0744C7.39701 18.7749 6.46318 19.7705 5.91174 20.9354C5.3603 22.1003 5.21602 23.3821 5.49714 24.6187C5.77826 25.8553 6.47216 26.9912 7.49108 27.8828C8.51001 28.7744 9.8082 29.3815 11.2215 29.6275C12.6348 29.8735 14.0997 29.7472 15.431 29.2647C16.7623 28.7822 17.9001 27.9651 18.7007 26.9168C19.5013 25.8684 19.9286 24.6359 19.9286 23.375V0Z" fill="black"/>
</svg>
