<svg width="43" height="41" viewBox="0 0 43 41" fill="none" xmlns="http://www.w3.org/2000/svg">
<path d="M0.387695 40.1063L3.30889 30.2977C1.51275 27.4278 0.555467 24.1674 0.565336 20.8343C0.565336 10.3901 9.80263 1.89844 21.1519 1.89844C26.6587 1.89844 31.83 3.86922 35.7085 7.44752C39.5969 11.0258 41.7384 15.7848 41.7285 20.8434C41.7285 31.2877 32.4912 39.7793 21.142 39.7793H21.1321C17.6879 39.7793 14.3029 38.9801 11.2928 37.4725L0.387695 40.1063ZM11.806 34.0395L12.4278 34.3846C15.0529 35.8196 18.0629 36.5734 21.1321 36.5825H21.142C30.5668 36.5825 38.2448 29.5258 38.2448 20.8434C38.2448 16.6385 36.4684 12.6878 33.2413 9.70893C30.0141 6.73004 25.7113 5.09529 21.142 5.09529C11.7073 5.09529 4.02932 12.152 4.02932 20.8343C4.02932 23.8041 4.92739 26.7013 6.64458 29.2079L7.04921 29.8073L5.32215 35.6107L11.806 34.0395Z" fill="black" fill-opacity="0.24"/>
<path d="M1.32153 39.0941L4.109 29.7392C2.39364 27.0036 1.48722 23.8913 1.48722 20.7162C1.48722 10.7603 10.298 2.66113 21.1067 2.66113C26.36 2.66113 31.282 4.54467 34.9856 7.95298C38.6892 11.3613 40.7262 15.8997 40.7262 20.7252C40.7262 30.681 31.9155 38.7802 21.1067 38.7802H21.097C17.8124 38.7802 14.5864 38.0178 11.7209 36.5827L1.32153 39.0941Z" fill="url(#paint0_linear_374_161)"/>
<path d="M1.78442 38.1216L4.66936 28.5646C2.89551 25.7683 1.95011 22.5915 1.95986 19.3439C1.95986 9.16745 11.0825 0.893555 22.2908 0.893555C27.7293 0.893555 32.8364 2.8138 36.6668 6.30034C40.5069 9.78688 42.6218 14.4238 42.6121 19.3527C42.6121 29.5292 33.4895 37.8031 22.2811 37.8031H22.2714C18.8699 37.8031 15.5268 37.0243 12.5542 35.5554L1.78442 38.1216ZM13.061 32.2104L13.675 32.5467C16.2676 33.9449 19.2402 34.6793 22.2714 34.6882H22.2811C31.5889 34.6882 39.1716 27.8125 39.1716 19.3527C39.1716 15.2556 37.4172 11.4063 34.2302 8.50376C31.0431 5.60127 26.7937 4.00843 22.2811 4.00843C12.9635 4.00843 5.38084 10.8842 5.38084 19.3439C5.38084 22.2375 6.26777 25.0604 7.96364 27.5027L8.36324 28.0868L6.65762 33.7413L13.061 32.2104Z" fill="white"/>
<path d="M16.9753 11.7662C16.5951 10.9963 16.1955 10.9786 15.8349 10.9698C15.5425 10.9609 15.2014 10.9609 14.8603 10.9609C14.5192 10.9609 13.9734 11.076 13.5055 11.5361C13.0377 11.9963 11.7317 13.1113 11.7317 15.3855C11.7317 17.6508 13.5543 19.8454 13.8077 20.1551C14.0611 20.4648 17.3261 25.2699 22.482 27.1194C26.7704 28.6591 27.6476 28.3494 28.5735 28.2697C29.5091 28.1901 31.5754 27.1548 32.0042 26.0752C32.4233 24.9956 32.4233 24.0753 32.2966 23.8806C32.1699 23.6859 31.8288 23.5709 31.3219 23.3408C30.8151 23.1107 28.3201 21.9957 27.8522 21.8365C27.3844 21.6772 27.0433 21.6064 26.7119 22.0665C26.3708 22.5267 25.3961 23.562 25.1037 23.8717C24.8114 24.1815 24.5092 24.2169 24.0024 23.9868C23.4956 23.7567 21.8582 23.27 19.9187 21.6949C18.408 20.4737 17.3846 18.9605 17.0922 18.5004C16.7998 18.0402 17.063 17.7924 17.3164 17.5624C17.5405 17.3588 17.8232 17.0226 18.0766 16.7571C18.33 16.4916 18.4177 16.2969 18.5834 15.9872C18.7491 15.6775 18.6711 15.412 18.5444 15.1819C18.4177 14.9519 17.4236 12.6777 16.9753 11.7662Z" fill="white"/>
<defs>
<linearGradient id="paint0_linear_374_161" x1="5044.97" y1="9365.28" x2="5044.97" y2="2.13765" gradientUnits="userSpaceOnUse">
<stop stop-color="#20B038"/>
<stop offset="1" stop-color="#60D66A"/>
</linearGradient>
</defs>
</svg>
