<svg width="128" height="125" viewBox="0 0 128 125" fill="none" xmlns="http://www.w3.org/2000/svg">
<path d="M64 125C99.3462 125 128 97.0178 128 62.5C128 27.9822 99.3462 0 64 0C28.6538 0 0 27.9822 0 62.5C0 97.0178 28.6538 125 64 125Z" fill="#4FD1D9"/>
<path d="M60.9283 12.6669C41.1309 13.8335 30.7203 24.8335 29.8669 44.6669H49.8349C50.0056 37.8335 54.1016 32.6669 61.2696 31.8335C68.4376 31.1669 75.2643 32.8335 77.3123 37.5002C79.5309 42.6669 74.5816 48.6669 72.1923 51.1669C67.7549 55.8335 60.5869 59.3335 56.8323 64.3335C53.2483 69.3335 52.5656 75.8335 52.2243 83.8335H69.8029C69.9736 78.6669 70.3149 73.8335 72.7043 70.6669C76.6296 65.5002 82.4323 63.1669 87.2109 59.0002C91.8189 55.1669 96.7683 50.5002 97.451 43.1669C100.352 21.6669 82.2616 11.3335 60.9283 12.6669Z" fill="white"/>
<path d="M61.4399 112.5C67.5666 112.5 72.5332 107.724 72.5332 101.833C72.5332 95.9421 67.5666 91.1665 61.4399 91.1665C55.3132 91.1665 50.3466 95.9421 50.3466 101.833C50.3466 107.724 55.3132 112.5 61.4399 112.5Z" fill="white"/>
</svg>
