<svg width="81" height="81" viewBox="0 0 81 81" fill="none" xmlns="http://www.w3.org/2000/svg">
<g clip-path="url(#clip0_3_427)">
<path d="M0 30C0 13.4315 13.4315 0 30 0H41C63.0914 0 81 17.9086 81 40V51C81 67.5685 67.5685 81 51 81H30C13.4315 81 0 67.5685 0 51V30Z" fill="white"/>
<path d="M38.743 51.2567H20.2343C20.7641 43.2972 27.4075 36.9843 35.496 36.9843C38.4442 36.9843 41.3058 37.8245 43.7701 39.4149C44.247 39.7218 44.8831 39.5857 45.1915 39.1081C45.4993 38.631 45.3615 37.9944 44.8853 37.6867C42.0866 35.8821 38.8398 34.9282 35.496 34.9282C25.9281 34.9282 18.1438 42.7142 18.1438 52.2847C18.1438 52.8522 18.6037 53.3128 19.1719 53.3128H38.743C39.3106 53.3128 39.7711 52.8523 39.7711 52.2847C39.7711 51.7173 39.3112 51.2567 38.743 51.2567Z" fill="#2E35B8" stroke="#2E35B8" stroke-width="0.4"/>
<path d="M35.2091 33.7925C40.7913 33.7925 45.3324 29.2508 45.3324 23.6676C45.3324 18.0886 40.7912 13.5498 35.2091 13.5498C29.6307 13.5498 25.093 18.0887 25.093 23.6676C25.093 29.2501 29.6306 33.7925 35.2091 33.7925ZM35.2091 15.6059C39.6569 15.6059 43.2763 19.2228 43.2763 23.6676C43.2763 28.1164 39.6573 31.7364 35.2091 31.7364C30.7655 31.7364 27.1491 28.1165 27.1491 23.6676C27.1491 19.2226 30.7653 15.6059 35.2091 15.6059Z" fill="#2E35B8" stroke="#2E35B8" stroke-width="0.4"/>
<path d="M42.7273 62.3783L38.2899 63.3268C37.8748 63.4151 37.4495 63.2405 37.2166 62.8869C36.9834 62.533 36.9918 62.0726 37.2363 61.7268L43.0161 53.5801C42.0028 52.1549 41.4033 50.4162 41.416 48.5364C41.451 43.7751 45.3711 39.9365 50.1138 39.9591C54.875 39.9952 58.72 43.8972 58.6855 48.6579C58.6734 50.4925 58.0837 52.2308 57.018 53.682L62.6745 61.9082C62.9147 62.2568 62.9157 62.7174 62.677 63.069C62.4388 63.4205 62.0078 63.5873 61.5969 63.4935L57.1808 62.4832L56.3437 66.6255C56.2573 67.0527 55.9111 67.378 55.4804 67.4397C55.4321 67.4465 55.3832 67.45 55.3351 67.45C54.9565 67.45 54.6035 67.2402 54.4247 66.8976L49.9818 58.391L45.4189 66.8336L42.7273 62.3783ZM42.7273 62.3783L43.5044 66.5337C43.5846 66.9619 43.9252 67.293 44.3555 67.3608C44.4084 67.3689 44.4623 67.3732 44.5147 67.3732C44.888 67.3732 45.2377 67.1696 45.4189 66.8336L42.7273 62.3783ZM56.6289 48.6434V48.6449C56.6174 50.3998 55.9218 52.0452 54.6692 53.2785C53.4286 54.5004 51.792 55.1713 50.0538 55.1708H50.0527H50.0516H50.0505H50.0494H50.0483H50.0472H50.0461H50.0451H50.044H50.0429H50.0418H50.0407H50.0396H50.0385H50.0374H50.0363H50.0353H50.0342H50.0331H50.032H50.0309H50.0298H50.0287H50.0276H50.0265H50.0255H50.0244H50.0233H50.0222H50.0211H50.02H50.0189H50.0178H50.0167H50.0157H50.0146H50.0135H50.0124H50.0113H50.0102H50.0091H50.008H50.0069H50.0059H50.0048H50.0037C46.3783 55.1458 43.448 52.1756 43.4721 48.5501C43.4984 44.9379 46.4489 42.0151 50.0565 42.0151H50.0576H50.0587H50.0598H50.0609H50.062H50.0631H50.0642H50.0652H50.0663H50.0674H50.0685H50.0696H50.0707H50.0717H50.0728H50.0739H50.075H50.0761H50.0772H50.0783H50.0794H50.0805H50.0815H50.0826H50.0837H50.0848H50.0859H50.087H50.0881H50.0892H50.0903H50.0913H50.0924H50.0935H50.0946H50.0957H50.0968H50.0979H50.099C53.726 42.0429 56.6556 45.0168 56.6289 48.6434ZM55.3753 61.0408L54.9042 63.3722L51.6159 57.0769C53.0727 56.8115 54.4296 56.1766 55.5779 55.216L59.4863 60.9002L56.6124 60.2424C56.3404 60.18 56.0579 60.2308 55.8258 60.3801C55.5927 60.5309 55.4307 60.7692 55.3753 61.0408ZM44.9923 63.3001L44.5557 60.9632C44.5049 60.6909 44.3453 60.45 44.1152 60.2965C43.8839 60.1418 43.5999 60.0873 43.3289 60.1464L40.4404 60.7638L44.4343 55.1347C45.5389 56.0844 46.8845 56.7577 48.3689 57.0519L44.9923 63.3001Z" fill="#2E35B8"/>
<path d="M42.7273 62.3783L38.2899 63.3268C37.8748 63.4151 37.4495 63.2405 37.2166 62.8869C36.9834 62.533 36.9918 62.0726 37.2363 61.7268L43.0161 53.5801C42.0028 52.1549 41.4033 50.4162 41.416 48.5364C41.451 43.7751 45.3711 39.9365 50.1138 39.9591C54.875 39.9952 58.72 43.8972 58.6855 48.6579C58.6734 50.4925 58.0837 52.2308 57.018 53.682L62.6745 61.9082C62.9147 62.2568 62.9157 62.7174 62.677 63.069C62.4388 63.4205 62.0078 63.5873 61.5969 63.4935L57.1808 62.4832L56.3437 66.6255C56.2573 67.0527 55.9111 67.378 55.4804 67.4397C55.4321 67.4465 55.3832 67.45 55.3351 67.45C54.9565 67.45 54.6035 67.2402 54.4247 66.8976L49.9818 58.391L45.4189 66.8336M42.7273 62.3783L45.4189 66.8336M42.7273 62.3783L43.5044 66.5337C43.5846 66.9619 43.9252 67.293 44.3555 67.3608C44.4084 67.3689 44.4623 67.3732 44.5147 67.3732C44.888 67.3732 45.2377 67.1696 45.4189 66.8336M56.6289 48.6434V48.6449C56.6174 50.3998 55.9218 52.0452 54.6692 53.2785C53.4286 54.5004 51.792 55.1713 50.0538 55.1708H50.0527H50.0516H50.0505H50.0494H50.0483H50.0472H50.0461H50.0451H50.044H50.0429H50.0418H50.0407H50.0396H50.0385H50.0374H50.0363H50.0353H50.0342H50.0331H50.032H50.0309H50.0298H50.0287H50.0276H50.0265H50.0255H50.0244H50.0233H50.0222H50.0211H50.02H50.0189H50.0178H50.0167H50.0157H50.0146H50.0135H50.0124H50.0113H50.0102H50.0091H50.008H50.0069H50.0059H50.0048H50.0037C46.3783 55.1458 43.448 52.1756 43.4721 48.5501C43.4984 44.9379 46.4489 42.0151 50.0565 42.0151H50.0576H50.0587H50.0598H50.0609H50.062H50.0631H50.0642H50.0652H50.0663H50.0674H50.0685H50.0696H50.0707H50.0717H50.0728H50.0739H50.075H50.0761H50.0772H50.0783H50.0794H50.0805H50.0815H50.0826H50.0837H50.0848H50.0859H50.087H50.0881H50.0892H50.0903H50.0913H50.0924H50.0935H50.0946H50.0957H50.0968H50.0979H50.099C53.726 42.0429 56.6556 45.0168 56.6289 48.6434ZM55.3753 61.0408L54.9042 63.3722L51.6159 57.0769C53.0727 56.8115 54.4296 56.1766 55.5779 55.216L59.4863 60.9002L56.6124 60.2424C56.3404 60.18 56.0579 60.2308 55.8258 60.3801C55.5927 60.5309 55.4307 60.7692 55.3753 61.0408ZM44.9923 63.3001L44.5557 60.9632C44.5049 60.6909 44.3453 60.45 44.1152 60.2965C43.8839 60.1418 43.5999 60.0873 43.3289 60.1464L40.4404 60.7638L44.4343 55.1347C45.5389 56.0844 46.8845 56.7577 48.3689 57.0519L44.9923 63.3001Z" stroke="#2E35B8" stroke-width="0.4"/>
</g>
<defs>
<clipPath id="clip0_3_427">
<rect width="81" height="81" fill="white"/>
</clipPath>
</defs>
</svg>
