<svg width="81" height="82" viewBox="0 0 81 82" fill="none" xmlns="http://www.w3.org/2000/svg">
<g clip-path="url(#clip0_3_459)">
<path d="M0 30.5C0 13.9315 13.4315 0.5 30 0.5H41C63.0914 0.5 81 18.4086 81 40.5V51.5C81 68.0685 67.5685 81.5 51 81.5H30C13.4315 81.5 0 68.0685 0 51.5V30.5Z" fill="white"/>
<path d="M22.3512 23.8289L22.3602 23.8331L28.315 26.4512C27.1551 28.2456 26.5504 30.2874 26.5504 32.4292C26.5504 38.4982 31.4812 43.4834 37.6047 43.4834C43.7275 43.4834 48.6589 38.552 48.6589 32.4292C48.6589 30.3398 48.0548 28.2506 46.9426 26.5L51.877 24.178V34.1404L50.2465 37.6116L50.2418 37.6224C50.1191 37.9293 50.1058 38.2749 50.3207 38.5615C50.51 38.8139 50.8311 39.014 51.1724 39.014H54.3116C54.615 39.014 54.9709 38.8931 55.1256 38.5403C55.3244 38.258 55.3088 37.9217 55.189 37.6224L55.1884 37.6209L53.7668 34.1457V23.1711C53.7668 22.9547 53.7553 22.7185 53.6174 22.4944C53.4798 22.2708 53.2368 22.09 52.8474 21.9232C52.8423 21.921 52.8371 21.919 52.8319 21.9173C52.833 21.9177 52.7798 21.8952 52.656 21.8414C52.5405 21.791 52.3754 21.7187 52.1677 21.6274C51.7525 21.4449 51.168 21.1871 50.471 20.8791C49.0769 20.2631 47.233 19.4467 45.394 18.632C43.5551 17.8173 41.7211 17.0042 40.3469 16.3948L38.6872 15.6588L38.2226 15.4526L38.1002 15.3984L38.0688 15.3844L38.0622 15.3815C37.7959 15.2498 37.5199 15.2498 37.2536 15.3815L22.3628 21.976C22.0171 22.1163 21.7618 22.5116 21.7618 22.9051C21.7618 23.3031 21.967 23.6368 22.3512 23.8289ZM46.6095 32.4292C46.6095 37.4266 42.5489 41.4872 37.5515 41.4872C32.554 41.4872 28.4934 37.4266 28.4934 32.4292C28.4934 30.5603 29.0819 28.7873 30.1195 27.2528L37.2001 30.4286C37.3478 30.5011 37.4937 30.501 37.594 30.5009C37.5976 30.5009 37.6012 30.5009 37.6047 30.5009C37.6082 30.5009 37.6117 30.5009 37.6154 30.5009C37.7157 30.501 37.8615 30.5011 38.0092 30.4286L44.9866 27.3044C46.0686 28.836 46.6095 30.6074 46.6095 32.4292ZM52.7925 37.0178H52.7102L52.7545 36.9229L52.7925 37.0178ZM25.221 22.9051L37.6579 17.3776L50.0947 22.9051L37.6579 28.4326L25.221 22.9051Z" fill="#2E35B8" stroke="#2E35B8" stroke-width="0.4" stroke-linecap="round" stroke-linejoin="round"/>
<path d="M37.8725 44.999C27.3867 44.999 18.8372 53.5484 18.8372 64.0342C18.8372 64.5703 19.2992 65.0323 19.8353 65.0323H55.9096C56.4457 65.0323 56.9077 64.5703 56.9077 64.0342C56.9077 53.5484 48.3583 44.999 37.8725 44.999ZM54.9007 63.0361H20.8974C21.4226 54.0892 28.8457 46.9952 37.9257 46.9952C47.004 46.9952 54.3756 54.1397 54.9007 63.0361Z" fill="#2E35B8" stroke="#2E35B8" stroke-width="0.4" stroke-linecap="round" stroke-linejoin="round"/>
</g>
<defs>
<clipPath id="clip0_3_459">
<rect width="81" height="82" fill="white"/>
</clipPath>
</defs>
</svg>
