<svg width="64" height="51" viewBox="0 0 64 51" fill="none" xmlns="http://www.w3.org/2000/svg">
<g clip-path="url(#clip0_3_941)">
<path d="M0 5.18994C0 2.42852 2.23858 0.189941 5 0.189941H17.1145C28.1602 0.189941 37.1145 9.14425 37.1145 20.1899V40.8005C37.1145 43.5619 34.8759 45.8005 32.1145 45.8005H20C8.95431 45.8005 0 36.8462 0 25.8005V5.18994Z" fill="#FFEBED"/>
<path d="M39.3106 24.7819C44.0279 24.7819 47.865 20.9449 47.865 16.228C47.865 11.5122 44.0274 7.67566 39.3106 7.67566C34.5953 7.67566 30.7593 11.5122 30.7593 16.228C30.7593 20.9448 34.5953 24.7819 39.3106 24.7819ZM39.3106 9.38104C43.0878 9.38104 46.1601 12.4529 46.1601 16.2285C46.1601 20.0052 43.0873 23.0775 39.3106 23.0775C35.5355 23.0775 32.4641 20.0053 32.4641 16.2285C32.4641 12.4529 35.5355 9.38104 39.3106 9.38104Z" fill="#C12727" stroke="#C12727" stroke-width="0.2"/>
<path d="M55.1583 20.7859L57.21 22.5221C58.2601 23.4105 58.5329 24.8726 57.9757 26.0625L59.7707 27.9586L55.1583 20.7859ZM55.1583 20.7859C54.5497 20.2717 53.7776 20.0251 52.9847 20.0905L55.1583 20.7859ZM55.1583 20.7859L52.9847 20.0905L55.1583 20.7859ZM52.9847 20.0905C52.1903 20.1564 51.4685 20.5281 50.9538 21.1368C49.8923 22.3919 50.0495 24.2779 51.3046 25.3404L53.3557 27.0775M52.9847 20.0905L53.3557 27.0775L52.9847 20.0905ZM53.3557 27.0775C53.9152 27.5504 54.5996 27.7814 55.2809 27.7814C55.8248 27.7814 56.3647 27.6302 56.8383 27.3407L58.2995 28.8845V39.9965H54.2203C53.9722 32.1182 47.4903 25.7841 39.5525 25.7841C31.6156 25.7841 25.1347 32.1182 24.8866 39.9965H23.1098C22.6386 39.9965 22.2573 40.3785 22.2573 40.849V49.0892C22.2573 49.5602 22.6387 49.9416 23.1098 49.9416H62.1536C62.6241 49.9416 63.006 49.5603 63.006 49.0892V40.849C63.006 40.3775 62.6243 39.9955 62.1536 39.9955H60.0043M53.3557 27.0775L60.0043 39.9955L53.3557 27.0775ZM52.2557 22.2366C51.8008 22.7743 51.8682 23.5826 52.406 24.038L54.4571 25.7751L52.2557 22.2366ZM52.2557 22.2366C52.4763 21.9755 52.7849 21.8166 53.1255 21.7886C53.1616 21.7858 53.1972 21.7845 53.2332 21.7845C53.5346 21.7845 53.8243 21.8899 54.057 22.0869L56.1086 23.8229C56.1085 23.8229 56.1086 23.823 56.1086 23.8229C56.6458 24.2778 56.7134 25.0866 56.2579 25.6248M52.2557 22.2366L56.2579 25.6248L52.2557 22.2366ZM56.2579 25.6248C55.804 26.1619 54.9944 26.2295 54.4571 25.7751L56.2579 25.6248ZM60.0043 39.9955V28.5447C60.0043 28.3266 59.9213 28.1173 59.7707 27.9586L60.0043 39.9955ZM39.5525 27.4874C46.55 27.4874 52.2678 33.0569 52.515 39.995H26.5919C26.8387 33.0573 32.5559 27.4874 39.5525 27.4874ZM61.3012 48.2357H23.9622V41.7004H61.3012V48.2357Z" fill="#C12727"/>
<path d="M55.1583 20.7859L57.21 22.5221C58.2601 23.4105 58.5329 24.8726 57.9757 26.0625L59.7707 27.9586M55.1583 20.7859L59.7707 27.9586M55.1583 20.7859C54.5497 20.2717 53.7776 20.0251 52.9847 20.0905M55.1583 20.7859L52.9847 20.0905M59.7707 27.9586C59.9213 28.1173 60.0043 28.3266 60.0043 28.5447V39.9955M59.7707 27.9586L60.0043 39.9955M52.9847 20.0905C52.1903 20.1564 51.4685 20.5281 50.9538 21.1368C49.8923 22.3919 50.0495 24.2779 51.3046 25.3404L53.3557 27.0775M52.9847 20.0905L53.3557 27.0775M53.3557 27.0775C53.9152 27.5504 54.5996 27.7814 55.2809 27.7814C55.8248 27.7814 56.3647 27.6302 56.8383 27.3407L58.2995 28.8845V39.9965H54.2203C53.9722 32.1182 47.4903 25.7841 39.5525 25.7841C31.6156 25.7841 25.1347 32.1182 24.8866 39.9965H23.1098C22.6386 39.9965 22.2573 40.3785 22.2573 40.849V49.0892C22.2573 49.5602 22.6387 49.9416 23.1098 49.9416H62.1536C62.6241 49.9416 63.006 49.5603 63.006 49.0892V40.849C63.006 40.3775 62.6243 39.9955 62.1536 39.9955H60.0043M53.3557 27.0775L60.0043 39.9955M52.2557 22.2366C51.8008 22.7743 51.8682 23.5826 52.406 24.038L54.4571 25.7751M52.2557 22.2366L54.4571 25.7751M52.2557 22.2366C52.4763 21.9755 52.7849 21.8166 53.1255 21.7886M52.2557 22.2366L56.2579 25.6248M54.4571 25.7751C54.9944 26.2295 55.804 26.1619 56.2579 25.6248M54.4571 25.7751L56.2579 25.6248M53.1255 21.7886L53.1174 21.689M53.1255 21.7886C53.1616 21.7858 53.1972 21.7845 53.2332 21.7845C53.5346 21.7845 53.8243 21.8899 54.057 22.0869L56.1086 23.8229M56.1086 23.8229C56.1086 23.823 56.1085 23.8229 56.1086 23.8229ZM56.1086 23.8229C56.6458 24.2778 56.7134 25.0866 56.2579 25.6248M39.5525 27.4874C46.55 27.4874 52.2678 33.0569 52.515 39.995H26.5919C26.8387 33.0573 32.5559 27.4874 39.5525 27.4874ZM61.3012 48.2357H23.9622V41.7004H61.3012V48.2357Z" stroke="#C12727" stroke-width="0.2"/>
</g>
<defs>
<clipPath id="clip0_3_941">
<rect width="64" height="50" fill="white" transform="translate(0 0.189941)"/>
</clipPath>
</defs>
</svg>
