<svg width="68" height="62" viewBox="0 0 68 62" fill="none" xmlns="http://www.w3.org/2000/svg">
<g clip-path="url(#clip0_3_927)">
<path d="M0.5 6.20093C0.5 3.43951 2.73858 1.20093 5.5 1.20093H22.4297C33.4754 1.20093 42.4297 10.1552 42.4297 21.201V47.201C42.4297 49.9624 40.1911 52.201 37.4297 52.201H20.5C9.45431 52.201 0.5 43.2467 0.5 32.201V6.20093Z" fill="#FCE3E3"/>
<path d="M41.2192 21.8682L41.2208 21.8693L50.9897 28.5649L50.9907 28.5656C51.1649 28.6817 51.3488 28.747 51.4853 28.747C51.6361 28.747 51.7772 28.7167 51.9047 28.645C52.0313 28.5738 52.1384 28.4652 52.2275 28.3177C52.5345 27.8842 52.4055 27.3311 51.9824 27.029L51.9811 27.028L42.2684 20.3334C42.2682 20.3333 42.2687 20.3336 42.2684 20.3334C41.8346 20.0241 41.2792 20.1524 40.9764 20.5762C40.6664 21.0102 40.7951 21.5653 41.2192 21.8682Z" fill="#C12727"/>
<path d="M42.2684 20.3334L51.9811 27.028L51.9824 27.029C52.4055 27.3311 52.5345 27.8842 52.2275 28.3177C52.1384 28.4652 52.0313 28.5738 51.9047 28.645C51.7772 28.7167 51.6361 28.747 51.4853 28.747C51.3488 28.747 51.1649 28.6817 50.9907 28.5656L50.9897 28.5649L41.2208 21.8693L41.2192 21.8682C40.7951 21.5653 40.6664 21.0102 40.9764 20.5762C41.2792 20.1524 41.8346 20.0241 42.2684 20.3334ZM42.2684 20.3334C42.2682 20.3333 42.2687 20.3336 42.2684 20.3334Z" stroke="#F66962" stroke-width="0.2" stroke-linecap="round" stroke-linejoin="round"/>
<path d="M66.249 28.0178L66.2537 28.0144C66.4861 27.8402 66.6779 27.5945 66.6779 27.2758C66.6779 26.9694 66.4977 26.6608 66.2444 26.5308L45.3397 12.4846L45.3354 12.4819C45.0293 12.2982 44.6056 12.2982 44.2995 12.4819L44.2954 12.4845L18.5063 29.7138C18.4479 29.7435 18.3986 29.7759 18.3557 29.8188C18.3114 29.8631 18.2782 29.9143 18.2478 29.9752C18.2408 29.989 18.2372 30.0044 18.2372 30.0199V30.021V30.022V30.0231V30.0241V30.0252V30.0262V30.0273V30.0283V30.0294V30.0304V30.0315V30.0325V30.0337V30.0348V30.036V30.0371V30.0382V30.0393V30.0404V30.0416V30.0427V30.0438V30.0449C18.1866 30.1261 18.1581 30.1996 18.1431 30.2747C18.1274 30.3531 18.1274 30.4303 18.1274 30.5088V30.5138V45.6062C18.1274 45.9127 18.3077 46.2213 18.5611 46.3513L39.4659 60.2878C39.6356 60.4009 39.7658 60.4693 39.9605 60.4693C40.1415 60.4693 40.3304 60.4103 40.4628 60.2826L66.3041 43.0551L66.3086 43.0519C66.5409 42.8776 66.7328 42.632 66.7328 42.3133C66.7328 42.3078 66.7323 42.3023 66.7314 42.2969C66.6741 41.9528 66.5001 41.6447 66.2445 41.5135L62.2325 38.8027V30.6773L66.249 28.0178ZM24.3821 32.96C24.3533 32.9333 24.3219 32.9141 24.3066 32.9049C24.3007 32.8807 24.2859 32.8593 24.2647 32.8452L20.6585 30.4588L44.8448 14.3891L64.0915 27.2202L61.0455 29.2159C60.8725 29.2762 60.7037 29.3888 60.5872 29.503L39.9055 43.2908L24.3821 32.96ZM24.6937 35.4205L39.3562 45.1955L39.3602 45.198C39.6663 45.3817 40.09 45.3817 40.3961 45.198L40.4001 45.1954L60.3861 31.8533V38.3629L40.0145 51.7983L24.6937 41.9842V35.4205ZM23.3263 43.2714L23.3323 43.2756L39.5687 53.6976C39.6409 53.7659 39.7275 53.7979 39.8122 53.8133C39.8966 53.8286 39.9866 53.8286 40.0658 53.8286H40.0702C40.2548 53.8286 40.4349 53.7679 40.554 53.7083L40.5642 53.7024L61.0341 40.2383L64.0935 42.3125L39.9057 58.3832L19.919 45.0587V32.2356L22.9021 34.19V42.478C22.9021 42.79 23.087 43.0919 23.3263 43.2714Z" fill="#C12727" stroke="#C12727" stroke-width="0.2" stroke-linecap="round" stroke-linejoin="round"/>
</g>
<defs>
<clipPath id="clip0_3_927">
<rect width="67" height="61" fill="white" transform="translate(0.5 0.560059)"/>
</clipPath>
</defs>
</svg>
