<svg width="18" height="19" viewBox="0 0 18 19" fill="none" xmlns="http://www.w3.org/2000/svg">
<path opacity="0.4" d="M9 4.72478V16.7473C8.8725 16.7473 8.7375 16.7248 8.6325 16.6648L8.6025 16.6498C7.1625 15.8623 4.65 15.0373 3.0225 14.8198L2.805 14.7898C2.085 14.6998 1.5 14.0248 1.5 13.3048V4.24478C1.5 3.35228 2.2275 2.67728 3.12 2.75228C4.695 2.87978 7.08 3.67478 8.415 4.50728L8.6025 4.61978C8.715 4.68728 8.8575 4.72478 9 4.72478Z" fill="#F66962"/>
<path d="M16.5 4.25264V13.3051C16.5 14.0251 15.915 14.7001 15.195 14.7901L14.9475 14.8201C13.3125 15.0376 10.7925 15.8701 9.3525 16.6651C9.255 16.7251 9.135 16.7476 9 16.7476V4.72514C9.1425 4.72514 9.285 4.68764 9.3975 4.62014L9.525 4.53764C10.86 3.69764 13.2525 2.89514 14.8275 2.76014H14.8725C15.765 2.68514 16.5 3.35264 16.5 4.25264Z" fill="#F66962"/>
<path d="M5.8125 7.68018H4.125C3.8175 7.68018 3.5625 7.42518 3.5625 7.11768C3.5625 6.81018 3.8175 6.55518 4.125 6.55518H5.8125C6.12 6.55518 6.375 6.81018 6.375 7.11768C6.375 7.42518 6.12 7.68018 5.8125 7.68018Z" fill="#F66962"/>
<path d="M6.375 9.93018H4.125C3.8175 9.93018 3.5625 9.67518 3.5625 9.36768C3.5625 9.06018 3.8175 8.80518 4.125 8.80518H6.375C6.6825 8.80518 6.9375 9.06018 6.9375 9.36768C6.9375 9.67518 6.6825 9.93018 6.375 9.93018Z" fill="#F66962"/>
</svg>
