<svg width="54" height="59" viewBox="0 0 54 59" fill="none" xmlns="http://www.w3.org/2000/svg">
<g clip-path="url(#clip0_3_970)">
<path d="M0 5.18994C0 2.42852 2.23858 0.189941 5 0.189941H21.9297C32.9754 0.189941 41.9297 9.14425 41.9297 20.1899V46.1899C41.9297 48.9513 39.6911 51.1899 36.9297 51.1899H20C8.95431 51.1899 0 42.2356 0 31.1899V5.18994Z" fill="#FFEBED"/>
<path d="M53.6824 28.5052C53.74 19.4849 46.4488 12.0994 37.4291 12.0413C28.3971 11.9877 21.0233 19.2749 20.9652 28.2946C20.9234 34.8184 24.7265 40.4847 30.2465 43.1447L30.3 57.3947C30.301 57.7007 30.4841 57.976 30.7655 58.0953C30.8619 58.1366 30.9639 58.1565 31.0648 58.1565C31.2581 58.1565 31.4482 58.0831 31.5936 57.9449L37.246 52.5458L42.9368 57.9072C43.1591 58.1172 43.4864 58.1728 43.7653 58.052C44.0457 57.9306 44.2267 57.6538 44.2257 57.3478L44.1773 43.2487C49.7487 40.6662 53.6406 35.0413 53.6824 28.5052ZM42.69 55.5735L37.7661 50.9351C37.4704 50.6562 37.0079 50.6577 36.7137 50.9387L31.823 55.6102L31.7786 43.7877C33.4796 44.4026 35.3095 44.7462 37.2185 44.7585C37.2542 44.7585 37.2894 44.759 37.3251 44.759C39.1882 44.759 40.9783 44.4413 42.6492 43.8642L42.69 55.5735ZM37.3251 43.2294C37.2935 43.2294 37.2603 43.2289 37.2287 43.2289C29.0518 43.1763 22.4423 36.4817 22.4953 28.3043C22.5478 20.1595 29.19 13.5704 37.323 13.5704C37.3546 13.5704 37.3878 13.5704 37.4194 13.5704C45.5958 13.6234 52.2053 20.3181 52.1528 28.495C52.1008 36.6397 45.4581 43.2294 37.3251 43.2294Z" fill="#C12727"/>
<path d="M44.7582 26.0501L40.1081 25.3444L38.0554 21.1155C37.9284 20.8534 37.6633 20.6867 37.3726 20.6846C37.3726 20.6846 37.3696 20.6846 37.3675 20.6846C37.0784 20.6846 36.8138 20.8478 36.6838 21.1068L34.577 25.3092L29.9203 25.9547C29.6322 25.995 29.391 26.1949 29.2998 26.4712C29.208 26.7476 29.2809 27.052 29.4884 27.2564L32.8337 30.5599L32.0098 35.1886C31.9588 35.4751 32.0745 35.7657 32.3091 35.9386C32.5436 36.1114 32.8557 36.1354 33.1142 36.0018L37.2885 33.841L41.4374 36.0553C41.5506 36.1155 41.674 36.1456 41.7974 36.1456C41.9544 36.1456 42.1104 36.0972 42.243 36.0023C42.4796 35.833 42.5994 35.5439 42.552 35.2564L41.7872 30.6175L45.1748 27.3569C45.3843 27.155 45.4613 26.8516 45.3736 26.5742C45.2844 26.2973 45.0468 26.0939 44.7582 26.0501ZM40.4365 29.7946C40.2555 29.969 40.1708 30.2213 40.2121 30.4702L40.7903 33.9766L37.6541 32.3022C37.5414 32.242 37.4175 32.2119 37.2936 32.2119C37.1728 32.2119 37.0524 32.2405 36.9423 32.2976L33.7872 33.9307L34.4098 30.4319C34.4541 30.1841 34.3736 29.9307 34.1941 29.7538L31.6656 27.2569L35.1858 26.7685C35.4351 26.7338 35.6518 26.5788 35.7645 26.3539L37.3568 23.1779L38.9084 26.3743C39.0185 26.6007 39.2332 26.7588 39.482 26.7965L42.9976 27.3298L40.4365 29.7946Z" fill="#C12727"/>
</g>
<defs>
<clipPath id="clip0_3_970">
<rect width="54" height="58" fill="white" transform="translate(0 0.189941)"/>
</clipPath>
</defs>
</svg>
