<svg width="24" height="25" viewBox="0 0 24 25" fill="none" xmlns="http://www.w3.org/2000/svg">
<path d="M17.62 10.94C17.19 10.94 16.85 10.59 16.85 10.17C16.85 9.80004 16.48 9.03004 15.86 8.36004C15.25 7.71004 14.58 7.33004 14.02 7.33004C13.59 7.33004 13.25 6.98004 13.25 6.56004C13.25 6.14004 13.6 5.79004 14.02 5.79004C15.02 5.79004 16.07 6.33004 16.99 7.30004C17.85 8.21004 18.4 9.34004 18.4 10.16C18.4 10.59 18.05 10.94 17.62 10.94Z" fill="#2E35B8"/>
<path d="M21.23 10.9399C20.8 10.9399 20.46 10.5899 20.46 10.1699C20.46 6.61994 17.57 3.73994 14.03 3.73994C13.6 3.73994 13.26 3.38994 13.26 2.96994C13.26 2.54994 13.6 2.18994 14.02 2.18994C18.42 2.18994 22 5.76994 22 10.1699C22 10.5899 21.65 10.9399 21.23 10.9399Z" fill="#2E35B8"/>
<path opacity="0.4" d="M11.79 14.3999L8.52 17.6699C8.16 17.3499 7.81 17.0199 7.47 16.6799C6.44 15.6399 5.51 14.5499 4.68 13.4099C3.86 12.2699 3.2 11.1299 2.72 9.99994C2.24 8.85994 2 7.76994 2 6.72994C2 6.04994 2.12 5.39994 2.36 4.79994C2.6 4.18994 2.98 3.62994 3.51 3.12994C4.15 2.49994 4.85 2.18994 5.59 2.18994C5.87 2.18994 6.15 2.24994 6.4 2.36994C6.66 2.48994 6.89 2.66994 7.07 2.92994L9.39 6.19994C9.57 6.44994 9.7 6.67994 9.79 6.89994C9.88 7.10994 9.93 7.31994 9.93 7.50994C9.93 7.74994 9.86 7.98994 9.72 8.21994C9.59 8.44994 9.4 8.68994 9.16 8.92994L8.4 9.71994C8.29 9.82994 8.24 9.95994 8.24 10.1199C8.24 10.1999 8.25 10.2699 8.27 10.3499C8.3 10.4299 8.33 10.4899 8.35 10.5499C8.53 10.8799 8.84 11.3099 9.28 11.8299C9.73 12.3499 10.21 12.8799 10.73 13.4099C11.09 13.7599 11.44 14.0999 11.79 14.3999Z" fill="#2E35B8"/>
<path d="M21.9701 18.52C21.9701 18.8 21.9201 19.09 21.8201 19.37C21.7901 19.45 21.7601 19.53 21.7201 19.61C21.5501 19.97 21.3301 20.31 21.0401 20.63C20.5501 21.17 20.0101 21.56 19.4001 21.81C19.3901 21.81 19.3801 21.82 19.3701 21.82C18.7801 22.06 18.1401 22.19 17.4501 22.19C16.4301 22.19 15.3401 21.95 14.1901 21.46C13.0401 20.97 11.8901 20.31 10.7501 19.48C10.3601 19.19 9.9701 18.9 9.6001 18.59L12.8701 15.32C13.1501 15.53 13.4001 15.69 13.6101 15.8C13.6601 15.82 13.7201 15.85 13.7901 15.88C13.8701 15.91 13.9501 15.92 14.0401 15.92C14.2101 15.92 14.3401 15.86 14.4501 15.75L15.2101 15C15.4601 14.75 15.7001 14.56 15.9301 14.44C16.1601 14.3 16.3901 14.23 16.6401 14.23C16.8301 14.23 17.0301 14.27 17.2501 14.36C17.4701 14.45 17.7001 14.58 17.9501 14.75L21.2601 17.1C21.5201 17.28 21.7001 17.49 21.8101 17.74C21.9101 17.99 21.9701 18.24 21.9701 18.52Z" fill="#C12727"/>
</svg>
