<svg width="19" height="19" viewBox="0 0 19 19" fill="none" xmlns="http://www.w3.org/2000/svg">
<path d="M9.72192 10.4026C9.41442 10.4026 9.15942 10.1476 9.15942 9.84009V6.09009C9.15942 5.78259 9.41442 5.52759 9.72192 5.52759C10.0294 5.52759 10.2844 5.78259 10.2844 6.09009V9.84009C10.2844 10.1476 10.0294 10.4026 9.72192 10.4026Z" fill="#392C7D"/>
<path d="M11.8894 2.67759H7.5544C7.2544 2.67759 7.0144 2.43759 7.0144 2.13759C7.0144 1.83759 7.2544 1.59009 7.5544 1.59009H11.8894C12.1894 1.59009 12.4294 1.83009 12.4294 2.13009C12.4294 2.43009 12.1894 2.67759 11.8894 2.67759Z" fill="#392C7D"/>
<path opacity="0.4" d="M11.972 15.0677V12.8627C11.972 11.9102 12.542 11.3402 13.4945 11.3402H15.6995C15.842 11.3402 15.9695 11.3552 16.097 11.3852C16.1795 10.9652 16.2245 10.5302 16.2245 10.0877C16.2245 6.50271 13.307 3.58521 9.722 3.58521C6.13698 3.58521 3.21948 6.50271 3.21948 10.0877C3.21948 13.6727 6.13698 16.5902 9.722 16.5902C10.6295 16.5902 11.492 16.4027 12.2795 16.0652C12.0845 15.8102 11.972 15.4802 11.972 15.0677Z" fill="#392C7D"/>
<path d="M15.6994 11.3401H13.4944C12.5419 11.3401 11.9719 11.9101 11.9719 12.8626V15.0676C11.9719 16.0201 12.5419 16.5901 13.4944 16.5901H15.6994C16.6519 16.5901 17.2219 16.0201 17.2219 15.0676V12.8626C17.2219 11.9101 16.6519 11.3401 15.6994 11.3401ZM15.4894 14.6851L14.6044 15.1951C14.4244 15.3001 14.2444 15.3526 14.0794 15.3526C13.9519 15.3526 13.8394 15.3226 13.7344 15.2626C13.4944 15.1201 13.3594 14.8426 13.3594 14.4751V13.4551C13.3594 13.0876 13.4944 12.8101 13.7344 12.6676C13.9744 12.5251 14.2819 12.5551 14.6044 12.7351L15.4894 13.2451C15.8044 13.4326 15.9844 13.6876 15.9844 13.9651C15.9844 14.2426 15.8119 14.4976 15.4894 14.6851Z" fill="#392C7D"/>
</svg>
