<svg width="62" height="58" viewBox="0 0 62 58" fill="none" xmlns="http://www.w3.org/2000/svg">
<g clip-path="url(#clip0_3_954)">
<path d="M0.5 5.75073C0.5 2.98931 2.73858 0.750732 5.5 0.750732H22.4297C33.4754 0.750732 42.4297 9.70504 42.4297 20.7508V46.7508C42.4297 49.5122 40.1911 51.7508 37.4297 51.7508H20.5C9.45431 51.7508 0.5 42.7965 0.5 31.7508V5.75073Z" fill="#FFEBED"/>
<path d="M51.4722 21.8383V21.8466C54.0062 21.8081 56.4561 22.7636 58.2956 24.5108C60.1599 26.2814 61.2444 28.7201 61.3106 31.2904C61.3768 33.8607 60.4192 36.352 58.6485 38.2163C56.8789 40.0795 54.442 41.1639 51.8734 41.2312C51.8086 41.2386 51.7432 41.2387 51.6785 41.2314H48.4862C48.2528 41.2314 48.029 41.1387 47.864 40.9736C47.699 40.8086 47.6062 40.5849 47.6062 40.3514C47.6062 40.118 47.699 39.8942 47.864 39.7292C48.029 39.5641 48.2528 39.4714 48.4862 39.4714H51.5386H51.6635C52.7182 39.4718 53.7625 39.262 54.7352 38.8543C55.708 38.4466 56.5898 37.8492 57.329 37.097C58.0683 36.3447 58.6503 35.4526 59.041 34.4729C59.4317 33.4932 59.6232 32.4455 59.6045 31.3909C59.5857 30.3364 59.357 29.2962 58.9317 28.3309C58.5064 27.3657 57.8931 26.495 57.1275 25.7695C56.3619 25.0441 55.4594 24.4783 54.4728 24.1055C53.4861 23.7327 52.4351 23.5602 51.381 23.5981L51.3775 23.5983C49.891 23.5991 48.4321 24.0002 47.1541 24.7594C47.0205 24.8393 46.8681 24.8822 46.7124 24.884C46.5567 24.8857 46.4033 24.8461 46.2679 24.7692C46.1324 24.6922 46.0199 24.5807 45.9416 24.446C45.8634 24.3113 45.8224 24.1581 45.8226 24.0024M51.4722 21.8383L23.159 27.1451C22.8398 26.1031 22.6766 25.0197 22.6746 23.9299C22.6746 17.7058 27.8639 12.6419 34.2486 12.6419C40.6335 12.6419 45.8226 17.7111 45.8226 23.9091V23.9101V23.9112V23.9122V23.9134V23.9145V23.9157V23.9169V23.918V23.9192V23.9203V23.9213V23.9225V23.9236V23.9246V23.9257V23.9269V23.928V23.9292V23.9304V23.9315V23.9327V23.9341V23.9351V23.9362V23.9374V23.9385V23.9397V23.9409V23.942V23.9432V23.9444V23.9455V23.9467V23.9481V23.9493V23.9504V23.9516V23.953V23.9542V23.9554V23.9565V23.9577V23.9588V23.9602V23.9614V23.9626V23.9637V23.9649V23.9661V23.9674V23.9686V23.9698V23.971V23.9721V23.9733V23.9744V23.9756V23.9766V23.9777V23.9787V23.9798V23.981V23.9822V23.9833V23.9843V23.9854V23.9866V23.9878V23.9889V23.9901V23.9912V23.9922V23.9934V23.9945V23.9957V23.9969V23.998V23.999V24.0001V24.0013V24.0024M51.4722 21.8383H51.3722H51.4722ZM51.4722 21.8383H51.3722H51.4722ZM45.8226 24.0024L45.9226 24.0027L45.8226 24.0024ZM45.8226 24.0024L45.9226 24.0027L45.8226 24.0024ZM45.9226 24.0027C45.9224 24.1406 45.9588 24.2763 46.0281 24.3957L34.2486 12.5418C40.6862 12.5418 45.9226 17.6535 45.9226 23.9091V24.0027ZM51.3722 21.8383C50.0478 21.8384 48.7369 22.1007 47.5153 22.61C47.1426 19.388 45.6002 16.413 43.1783 14.251C40.723 12.0591 37.5395 10.8598 34.2482 10.887C26.9153 10.8872 20.9146 16.7382 20.9146 23.9351C20.9146 24.6948 20.9827 25.4531 21.1181 26.2007C20.1161 26.0149 19.0864 26.0328 18.0906 26.2538C17.0466 26.4855 16.0633 26.9354 15.2052 27.5738C14.3472 28.2123 13.6338 29.0249 13.1119 29.9584C12.59 30.8919 12.2713 31.9252 12.1767 32.9905C12.0821 34.0558 12.2138 35.1291 12.5632 36.1399C12.9125 37.1507 13.4715 38.0763 14.2037 38.8559C14.9358 39.6355 15.8245 40.2516 16.8114 40.6636C17.798 41.0755 18.8604 41.2743 19.9291 41.247H20.1878C20.4212 41.247 20.6451 41.1542 20.8101 40.9892C20.9751 40.8242 21.0678 40.6004 21.0678 40.367C21.0678 40.1336 20.9751 39.9097 20.8101 39.7447C20.6451 39.5797 20.4212 39.487 20.1878 39.487H19.9278M51.3722 21.8383L19.9278 39.487L51.3722 21.8383ZM19.9278 39.487H19.9249H19.9278ZM19.9278 39.487H19.9249H19.9278ZM19.9249 39.487C19.1467 39.5101 18.3719 39.3767 17.6462 39.0949C16.9205 38.813 16.2588 38.3884 15.7002 37.8461C15.1416 37.3039 14.6976 36.655 14.3943 35.938C14.0911 35.221 13.9348 34.4505 13.9348 33.672C13.9348 32.8935 14.0911 32.1229 14.3943 31.4059C14.6976 30.6889 15.1416 30.04 15.7002 29.4978C16.2588 28.9555 16.9205 28.5309 17.6462 28.249C18.3719 27.9672 19.1467 27.8339 19.9249 27.857H19.9276M19.9249 39.487L19.9276 27.857L19.9249 39.487ZM19.9276 27.857C20.6399 27.8585 21.3464 27.9849 22.015 28.2304L19.9276 27.857ZM19.9276 27.857L22.015 28.2304L19.9276 27.857ZM22.015 28.2304C22.1689 28.2869 22.3356 28.2992 22.4961 28.2661L22.015 28.2304ZM22.015 28.2304L22.4961 28.2661L22.015 28.2304ZM22.4961 28.2661C22.6567 28.233 22.8048 28.1556 22.9237 28.0427L22.4961 28.2661ZM22.4961 28.2661L22.9237 28.0427L22.4961 28.2661ZM22.9237 28.0427C23.0426 27.9298 23.1277 27.786 23.1693 27.6274L22.9237 28.0427ZM22.9237 28.0427L23.1693 27.6274L22.9237 28.0427ZM23.1693 27.6274C23.2108 27.4689 23.2072 27.3018 23.159 27.1451L23.1693 27.6274Z" fill="#C12727"/>
<path d="M51.4722 21.8383V21.8466C54.0062 21.8081 56.4561 22.7636 58.2956 24.5108C60.1599 26.2814 61.2444 28.7201 61.3106 31.2904C61.3768 33.8607 60.4192 36.352 58.6485 38.2163C56.8789 40.0795 54.442 41.1639 51.8734 41.2312C51.8086 41.2386 51.7432 41.2387 51.6785 41.2314H48.4862C48.2528 41.2314 48.029 41.1386 47.864 40.9736C47.699 40.8086 47.6062 40.5848 47.6062 40.3514C47.6062 40.118 47.699 39.8942 47.864 39.7292C48.029 39.5642 48.2528 39.4714 48.4862 39.4714H51.5386H51.6635C52.7182 39.4718 53.7625 39.262 54.7352 38.8543C55.708 38.4466 56.5898 37.8492 57.329 37.097C58.0683 36.3447 58.6503 35.4526 59.041 34.4729C59.4317 33.4932 59.6232 32.4455 59.6045 31.3909C59.5857 30.3364 59.357 29.2961 58.9317 28.3309C58.5064 27.3657 57.8931 26.495 57.1275 25.7695C56.3619 25.0441 55.4594 24.4783 54.4728 24.1055C53.4861 23.7327 52.4351 23.5602 51.381 23.5981L51.3775 23.5983C49.891 23.5991 48.4321 24.0002 47.1541 24.7594C47.0205 24.8393 46.8681 24.8823 46.7124 24.884C46.5567 24.8858 46.4033 24.8461 46.2679 24.7692C46.1324 24.6922 46.0199 24.5807 45.9416 24.446C45.8634 24.3113 45.8224 24.1581 45.8226 24.0024M51.4722 21.8383L23.159 27.1451M51.4722 21.8383H51.3722M45.8226 24.0024V24.0013V24.0001V23.999V23.998V23.9969V23.9957V23.9945V23.9934V23.9922V23.9912V23.9901V23.9889V23.9878V23.9866V23.9854V23.9843V23.9833V23.9822V23.981V23.9798V23.9787V23.9777V23.9766V23.9756V23.9744V23.9733V23.9721V23.971V23.9698V23.9686V23.9674V23.9661V23.9649V23.9637V23.9626V23.9614V23.9602V23.9588V23.9577V23.9565V23.9554V23.9542V23.953V23.9516V23.9504V23.9493V23.9481V23.9467V23.9455V23.9444V23.9432V23.942V23.9409V23.9397V23.9385V23.9374V23.9362V23.9351V23.9341V23.9327V23.9315V23.9304V23.9292V23.928V23.9269V23.9257V23.9246V23.9236V23.9225V23.9213V23.9203V23.9192V23.918V23.9169V23.9157V23.9145V23.9134V23.9122V23.9112V23.9101V23.9091C45.8226 17.7111 40.6335 12.6419 34.2486 12.6419C27.8639 12.6419 22.6746 17.7058 22.6746 23.9299C22.6766 25.0197 22.8398 26.1031 23.159 27.1451M45.8226 24.0024L45.9226 24.0027M23.159 27.1451C23.2072 27.3017 23.2108 27.4689 23.1693 27.6274M23.159 27.1451L23.1693 27.6274M51.3722 21.8383C50.0478 21.8384 48.7369 22.1007 47.5153 22.61C47.1426 19.388 45.6002 16.413 43.1783 14.251C40.723 12.0591 37.5395 10.8598 34.2482 10.887C26.9153 10.8872 20.9146 16.7382 20.9146 23.9351C20.9146 24.6949 20.9827 25.4532 21.1181 26.2007C20.1161 26.0149 19.0864 26.0327 18.0906 26.2538C17.0466 26.4855 16.0633 26.9354 15.2052 27.5738C14.3472 28.2123 13.6338 29.0249 13.1119 29.9584C12.59 30.8919 12.2713 31.9252 12.1767 32.9905C12.0821 34.0558 12.2138 35.1291 12.5632 36.1399C12.9125 37.1507 13.4715 38.0763 14.2037 38.8559C14.9358 39.6355 15.8245 40.2516 16.8114 40.6636C17.798 41.0755 18.8604 41.2743 19.9291 41.247H20.1878C20.4212 41.247 20.6451 41.1542 20.8101 40.9892C20.9751 40.8242 21.0678 40.6004 21.0678 40.367C21.0678 40.1336 20.9751 39.9097 20.8101 39.7447C20.6451 39.5797 20.4212 39.487 20.1878 39.487H19.9278M51.3722 21.8383L19.9278 39.487M45.9226 24.0027C45.9224 24.1407 45.9588 24.2763 46.0281 24.3957L34.2486 12.5418C40.6862 12.5418 45.9226 17.6535 45.9226 23.9091V24.0027ZM19.9278 39.487H19.9249M19.9249 39.487C19.1467 39.5101 18.3719 39.3767 17.6462 39.0949C16.9205 38.813 16.2588 38.3884 15.7002 37.8461C15.1416 37.3039 14.6976 36.655 14.3943 35.938C14.0911 35.221 13.9348 34.4505 13.9348 33.672C13.9348 32.8935 14.0911 32.1229 14.3943 31.4059C14.6976 30.6889 15.1416 30.04 15.7002 29.4978C16.2588 28.9555 16.9205 28.5309 17.6462 28.249C18.3719 27.9672 19.1467 27.8338 19.9249 27.857H19.9276M19.9249 39.487L19.9276 27.857M19.9276 27.857C20.6399 27.8585 21.3464 27.9849 22.015 28.2304M19.9276 27.857L22.015 28.2304M22.015 28.2304C22.1689 28.2869 22.3356 28.2992 22.4961 28.2661M22.015 28.2304L22.4961 28.2661M22.4961 28.2661C22.6567 28.2329 22.8048 28.1555 22.9237 28.0427M22.4961 28.2661L22.9237 28.0427M22.9237 28.0427C23.0426 27.9298 23.1277 27.786 23.1693 27.6274M22.9237 28.0427L23.1693 27.6274" stroke="#C12727" stroke-width="0.2"/>
<path d="M49.3807 49.6229L49.3781 49.6253L44.6401 54.3634V31.5273C44.6401 31.2939 44.5473 31.07 44.3823 30.905C44.2173 30.74 43.9934 30.6473 43.7601 30.6473C43.5267 30.6473 43.3028 30.74 43.1378 30.905C42.9728 31.07 42.8801 31.2939 42.8801 31.5273V54.3634L38.1432 49.6266C38.0629 49.5407 37.9662 49.4718 37.8588 49.424C37.7508 49.3759 37.6343 49.35 37.5161 49.3479C37.398 49.3458 37.2806 49.3676 37.171 49.4118C37.0615 49.4561 36.9619 49.522 36.8783 49.6055C36.7948 49.6891 36.7289 49.7886 36.6846 49.8982C36.6404 50.0078 36.6187 50.1252 36.6207 50.2433C36.6228 50.3615 36.6487 50.478 36.6968 50.586C36.7446 50.6933 36.8135 50.7901 36.8994 50.8704L43.1381 57.1092C43.3031 57.274 43.5269 57.3666 43.7601 57.3666C43.9933 57.3666 44.2169 57.274 44.3819 57.1092L50.622 50.8692L50.6244 50.8666C50.7799 50.6998 50.8645 50.4792 50.8605 50.2512C50.8564 50.0232 50.7641 49.8057 50.6029 49.6445C50.4416 49.4832 50.2241 49.3909 49.9961 49.3868C49.7681 49.3828 49.5475 49.4675 49.3807 49.6229Z" fill="#C12727" stroke="#C12727" stroke-width="0.2"/>
<path d="M37.1041 37.1477L37.1016 37.1451L30.8616 30.9051C30.6966 30.7403 30.4729 30.6477 30.2397 30.6477C30.0065 30.6477 29.7828 30.7403 29.6178 30.9051L23.3778 37.1451L23.3753 37.1477C23.2199 37.3145 23.1353 37.5351 23.1393 37.7631C23.1433 37.9911 23.2357 38.2086 23.3969 38.3699C23.5581 38.5311 23.7757 38.6234 24.0036 38.6275C24.2316 38.6315 24.4523 38.5469 24.6191 38.3914L24.6216 38.389L29.3597 33.6509V56.4871C29.3597 56.7204 29.4524 56.9443 29.6174 57.1093C29.7825 57.2743 30.0063 57.3671 30.2397 57.3671C30.4731 57.3671 30.6969 57.2743 30.862 57.1093C31.027 56.9443 31.1197 56.7204 31.1197 56.4871V33.6509L35.8578 38.389L35.8603 38.3914C36.0271 38.5469 36.2478 38.6315 36.4758 38.6275C36.7038 38.6234 36.9213 38.5311 37.0825 38.3699C37.2437 38.2086 37.3361 37.9911 37.3401 37.7631C37.3441 37.5351 37.2595 37.3145 37.1041 37.1477Z" fill="#C12727" stroke="#C12727" stroke-width="0.2"/>
<path d="M40.8527 21.9513L40.8568 21.9611C40.9511 22.1566 41.1143 22.3103 41.315 22.3927C41.5158 22.4752 41.7399 22.4805 41.9444 22.4078C42.1488 22.335 42.3192 22.1893 42.4227 21.9986C42.5263 21.8078 42.5557 21.5856 42.5053 21.3745L42.5022 21.364C41.9033 19.6876 40.8065 18.2341 39.3588 17.1982C37.9111 16.1622 36.1815 15.5932 34.4015 15.5673H34.4C34.1666 15.5673 33.9428 15.66 33.7778 15.825C33.6127 15.9901 33.52 16.2139 33.52 16.4473C33.52 16.6807 33.6127 16.9045 33.7778 17.0695C33.9426 17.2344 34.1661 17.3271 34.3992 17.3273C35.8174 17.35 37.195 17.8047 38.3481 18.6308C39.5013 19.4571 40.3751 20.6155 40.8527 21.9513Z" fill="#C12727" stroke="#C12727" stroke-width="0.2"/>
</g>
<defs>
<clipPath id="clip0_3_954">
<rect width="61" height="57" fill="white" transform="translate(0.5 0.560059)"/>
</clipPath>
</defs>
</svg>
