<svg width="81" height="81" viewBox="0 0 81 81" fill="none" xmlns="http://www.w3.org/2000/svg">
<g clip-path="url(#clip0_3_413)">
<path d="M0 30C0 13.4315 13.4315 0 30 0H41C63.0914 0 81 17.9086 81 40V51C81 67.5685 67.5685 81 51 81H30C13.4315 81 0 67.5685 0 51V30Z" fill="white"/>
<path d="M30.1468 23.5404C30.1179 23.5142 30.087 23.4905 30.0539 23.4685C30.0482 23.4647 30.0427 23.4608 30.0372 23.4569C30.0274 23.45 30.0176 23.443 30.0071 23.437C29.9682 23.4149 29.9267 23.3976 29.8837 23.3818L30.17 23.5583C30.166 23.5544 30.1615 23.5512 30.1569 23.548C30.1534 23.5456 30.15 23.5431 30.1468 23.5404ZM30.1468 23.5404L30.2814 23.3925C30.2789 23.3902 30.2765 23.388 30.274 23.3859C30.274 23.3858 30.2741 23.386 30.274 23.3859L30.2719 23.3843L30.2706 23.3835C30.2699 23.383 30.2704 23.3833 30.2706 23.3835C30.271 23.3838 30.2732 23.3854 30.277 23.3886L30.1468 23.5404ZM38.9451 31.9116L30.3114 23.4169C30.3111 23.4166 30.3108 23.4163 30.3105 23.416L38.9451 31.9116ZM38.9451 31.9116L53.3427 17.5145C53.7287 17.1286 54.3538 17.1286 54.7398 17.5145L62.9109 25.6857C63.2969 26.0717 63.2967 26.6966 62.9117 27.083L48.5996 41.3955L58.764 51.1788C58.8787 51.2893 58.9591 51.4236 59.0083 51.566C61.4614 54.1623 61.4223 58.2675 58.8803 60.8095L38.9451 31.9116ZM20.6794 32.907C20.6761 32.903 20.6738 32.9002 20.6706 32.8964C20.668 32.8934 20.6647 32.8896 20.6595 32.8833C20.6504 32.8725 20.6377 32.8568 20.625 32.8376C20.6248 32.8374 20.6252 32.8379 20.625 32.8376L20.7916 32.727L20.6794 32.907ZM20.6794 32.907C20.6833 32.9119 20.6857 32.9152 20.6899 32.9209C20.6928 32.9249 20.6966 32.9302 20.7024 32.9379C20.7133 32.9526 20.7301 32.9746 20.7525 32.9964C20.7524 32.9963 20.7526 32.9965 20.7525 32.9964L29.3759 41.4809M20.6794 32.907L29.3759 41.4809L20.6794 32.907ZM29.3759 41.4809L16.941 53.9162C16.5551 54.3022 16.5551 54.9273 16.941 55.3133L25.1127 63.4855C25.2979 63.6707 25.5495 63.7747 25.8115 63.7747C26.0737 63.7747 26.3245 63.6705 26.51 63.4857L39.078 50.9177L49.2179 60.7722C49.3691 60.9179 49.5522 60.9941 49.7328 61.0246C50.9552 62.1373 52.523 62.7529 54.1886 62.7529C55.9604 62.7529 57.6278 62.0626 58.8803 60.8095L29.3759 41.4809ZM49.9112 23.7406L53.2982 27.1275C53.6843 27.513 53.6843 28.1394 53.2982 28.5248M49.9112 23.7406L48.8982 31.527L45.5113 28.14L48.5137 25.1376L51.9008 28.5247C52.0938 28.7177 52.3471 28.8139 52.5995 28.8139C52.8519 28.8139 53.1052 28.7178 53.2982 28.5248M49.9112 23.7406L54.042 19.6098L60.8157 26.3844L47.183 40.0176L40.3534 33.2974L44.1137 29.5371L47.5008 32.9241C47.6938 33.1172 47.9471 33.2133 48.1996 33.2133C48.452 33.2133 48.7053 33.1172 48.8983 32.9241C49.2843 32.5387 49.2842 31.9124 48.8982 31.527L49.9112 23.7406ZM53.2982 28.5248L53.1569 28.3833L53.2982 28.5248ZM53.2982 28.5248L53.1569 28.3833L53.2982 28.5248ZM53.1569 28.3833C53.4647 28.0759 53.4647 27.5764 53.1569 27.2691V28.3833ZM25.2523 27.2584C24.9304 27.3531 24.678 27.6048 24.5832 27.9276L23.8071 30.5677L22.0985 31.0703L19.2363 21.9116L28.3955 24.7737L27.8929 26.4818L25.2523 27.2584ZM31.4193 40.719L23.3355 32.7657L24.8819 32.3111C25.2038 32.2163 25.4562 31.9647 25.5511 31.6419L26.3277 29.0019L28.9683 28.2253C29.2902 28.1305 29.5425 27.8789 29.6374 27.5561L30.1011 25.9805L46.487 42.1024L46.4886 42.1039L56.6688 51.9035L49.8959 58.6758L31.4202 40.7199L31.4193 40.719ZM25.811 61.3897L19.0363 54.6145L21.7225 51.9283L25.1095 55.3154C25.3026 55.5084 25.5559 55.6046 25.8083 55.6046C26.0607 55.6046 26.3141 55.5084 26.5071 55.3154C26.893 54.9294 26.893 54.3043 26.5071 53.9183L23.12 50.5313L25.7285 47.9228L29.1155 51.3099C29.3086 51.5029 29.5619 51.5991 29.8143 51.5991C30.0667 51.5991 30.32 51.5029 30.5131 51.3099C30.899 50.924 30.899 50.2988 30.5131 49.9129L27.126 46.5258L30.7897 42.8621L37.6612 49.5405L25.811 61.3897ZM57.4817 59.412C55.8456 61.0471 53.287 61.2081 51.4675 59.8977L57.9678 53.3974C59.2783 55.2175 59.1172 57.7769 57.4817 59.412Z" fill="#2E35B8"/>
<path d="M30.1468 23.5404C30.1179 23.5142 30.087 23.4905 30.0539 23.4685C30.0482 23.4647 30.0427 23.4608 30.0372 23.4569C30.0274 23.45 30.0176 23.443 30.0071 23.437C29.9682 23.4149 29.9267 23.3976 29.8837 23.3818L30.17 23.5583C30.166 23.5544 30.1615 23.5512 30.1569 23.548C30.1534 23.5456 30.15 23.5431 30.1468 23.5404ZM30.1468 23.5404L30.2814 23.3925C30.2789 23.3902 30.2765 23.388 30.274 23.3859M30.1468 23.5404L30.277 23.3886C30.2732 23.3854 30.271 23.3838 30.2706 23.3835M30.274 23.3859C30.274 23.3858 30.2741 23.386 30.274 23.3859ZM30.274 23.3859L30.2719 23.3843L30.2706 23.3835M30.2706 23.3835C30.2699 23.383 30.2704 23.3833 30.2706 23.3835ZM38.9451 31.9116L30.3114 23.4169C30.3111 23.4166 30.3108 23.4163 30.3105 23.416L38.9451 31.9116ZM38.9451 31.9116L53.3427 17.5145C53.7287 17.1286 54.3538 17.1286 54.7398 17.5145L62.9109 25.6857C63.2969 26.0717 63.2967 26.6966 62.9117 27.083L48.5996 41.3955L58.764 51.1788C58.8787 51.2893 58.9591 51.4236 59.0083 51.566C61.4614 54.1623 61.4223 58.2675 58.8803 60.8095M38.9451 31.9116L58.8803 60.8095M58.8803 60.8095C57.6278 62.0626 55.9604 62.7529 54.1886 62.7529C52.523 62.7529 50.9552 62.1373 49.7328 61.0246C49.5522 60.9941 49.3691 60.9179 49.2179 60.7722L39.078 50.9177L26.51 63.4857C26.3245 63.6705 26.0737 63.7747 25.8115 63.7747C25.5495 63.7747 25.2979 63.6707 25.1127 63.4855L16.941 55.3133C16.5551 54.9273 16.5551 54.3022 16.941 53.9162L29.3759 41.4809M58.8803 60.8095L29.3759 41.4809M20.6794 32.907C20.6761 32.903 20.6738 32.9002 20.6706 32.8964C20.668 32.8934 20.6647 32.8896 20.6595 32.8833C20.6504 32.8725 20.6377 32.8568 20.625 32.8376M20.6794 32.907L20.7916 32.727L20.625 32.8376M20.6794 32.907C20.6833 32.9119 20.6857 32.9152 20.6899 32.9209C20.6928 32.9249 20.6966 32.9302 20.7024 32.9379C20.7133 32.9526 20.7301 32.9746 20.7525 32.9964M20.6794 32.907L29.3759 41.4809M20.625 32.8376C20.6248 32.8374 20.6252 32.8379 20.625 32.8376ZM20.7525 32.9964C20.7526 32.9965 20.7524 32.9963 20.7525 32.9964ZM20.7525 32.9964L29.3759 41.4809M49.9112 23.7406L53.2982 27.1275C53.6843 27.513 53.6843 28.1394 53.2982 28.5248M49.9112 23.7406L48.8982 31.527M49.9112 23.7406L54.042 19.6098L60.8157 26.3844L47.183 40.0176L40.3534 33.2974L44.1137 29.5371L47.5008 32.9241C47.6938 33.1172 47.9471 33.2133 48.1996 33.2133C48.452 33.2133 48.7053 33.1172 48.8983 32.9241C49.2843 32.5387 49.2842 31.9124 48.8982 31.527M53.2982 28.5248C53.1052 28.7178 52.8519 28.8139 52.5995 28.8139C52.3471 28.8139 52.0938 28.7177 51.9008 28.5247L48.5137 25.1376L45.5113 28.14L48.8982 31.527M53.2982 28.5248L53.1569 28.3833M53.1569 28.3833C53.4647 28.0759 53.4647 27.5764 53.1569 27.2691V28.3833ZM20.502 32.5865L16.7876 20.7006M25.2523 27.2584C24.9304 27.3531 24.678 27.6048 24.5832 27.9276L23.8071 30.5677L22.0985 31.0703L19.2363 21.9116L28.3955 24.7737L27.8929 26.4818L25.2523 27.2584ZM31.4193 40.719L23.3355 32.7657L24.8819 32.3111C25.2038 32.2163 25.4562 31.9647 25.5511 31.6419L26.3277 29.0019L28.9683 28.2253C29.2902 28.1305 29.5425 27.8789 29.6374 27.5561L30.1011 25.9805L46.487 42.1024L46.4886 42.1039L56.6688 51.9035L49.8959 58.6758L31.4202 40.7199L31.4193 40.719ZM25.811 61.3897L19.0363 54.6145L21.7225 51.9283L25.1095 55.3154C25.3026 55.5084 25.5559 55.6046 25.8083 55.6046C26.0607 55.6046 26.3141 55.5084 26.5071 55.3154C26.893 54.9294 26.893 54.3043 26.5071 53.9183L23.12 50.5313L25.7285 47.9228L29.1155 51.3099C29.3086 51.5029 29.5619 51.5991 29.8143 51.5991C30.0667 51.5991 30.32 51.5029 30.5131 51.3099C30.899 50.924 30.899 50.2988 30.5131 49.9129L27.126 46.5258L30.7897 42.8621L37.6612 49.5405L25.811 61.3897ZM57.4817 59.412C55.8456 61.0471 53.287 61.2081 51.4675 59.8977L57.9678 53.3974C59.2783 55.2175 59.1172 57.7769 57.4817 59.412Z" stroke="#2E35B8" stroke-width="0.4"/>
</g>
<defs>
<clipPath id="clip0_3_413">
<rect width="81" height="81" fill="white"/>
</clipPath>
</defs>
</svg>
